# xmcd
#
# Track frame offsets:
#	150
#	10877
#	28622
#	44089
#	65067
#	78532
#	95985
#	117017
#	139177
#	153242
#	172060
#	189127
#
# Disc length: 2738 seconds
#
# Revision: 1
# Processed by: cddbd v1.4PL0 Copyright (c) Steve Scherf et al.
# Submitted via: audiograbber 1.80
#
DISCID=a30ab00c
DTITLE=Knut Nordhagen and The Blue Rhythm Pack - Noisy Silence
DYEAR=1900
DGENRE=
TTITLE0=Lyarblått
TTITLE1=High Muddy Water
TTITLE2=Bar TB Truffle
TTITLE3=Eye Of The Spy
TTITLE4=Hard Time
TTITLE5=Lost In The Groove
TTITLE6=Noisy Silence
TTITLE7=Smokin' Zone
TTITLE8=Web Top Checker
TTITLE9=Speedy Lost His Mojo
TTITLE10=Second Person
TTITLE11=Don't Start Me
EXTD=
EXTT0=
EXTT1=
EXTT2=
EXTT3=
EXTT4=
EXTT5=
EXTT6=
EXTT7=
EXTT8=
EXTT9=
EXTT10=
EXTT11=
PLAYORDER=
